<?xml version="1.0" encoding="UTF-8"?>
<svg width="58px" height="58px" viewBox="0 0 58 58" version="1.1" xmlns="http://www.w3.org/2000/svg" xmlns:xlink="http://www.w3.org/1999/xlink">
    <!-- Generator: sketchtool 63.1 (101010) - https://sketch.com -->
    <title>A230C7F1-DFA0-4E0D-BB32-9727385880C7</title>
    <desc>Created with sketchtool.</desc>
    <g id="[UI]PROVEEDOR-/-NOTIFICACIONES" stroke="none" stroke-width="1" fill="none" fill-rule="evenodd">
        <g id="01A_[Notificaciones]-Nueva-notificacion" transform="translate(-900.000000, -35.000000)" fill="#E24D56">
            <g id="Group-2-Copy-5" transform="translate(901.000000, 36.000000)">
                <circle id="Oval" stroke="#E24D56" fill-opacity="0.25" opacity="0.4" cx="28" cy="28" r="28"></circle>
                <g id="noun_Delete-Order_371294" transform="translate(10.888889, 12.444444)" fill-rule="nonzero">
                    <path d="M30.8075881,26.3590786 L16.4281843,30.6842818 C16.2764228,30.7222222 16.1246612,30.7601626 15.9728997,30.7601626 C15.8211382,30.7601626 15.6693767,30.7222222 15.5176152,30.6842818 L1.13821138,26.3590786 C0.455284553,26.1693767 0,25.5623306 0,24.8414634 L0,5.87127371 C0,5.18834688 0.455284553,4.58130081 1.13821138,4.35365854 L2.42818428,3.97425474 C2.42818428,3.97425474 2.42818428,3.97425474 2.42818428,3.97425474 L5.53929539,3.02574526 L5.53929539,10.6897019 L9.10569106,10.0067751 L9.10569106,1.96341463 L12.2926829,1.01490515 L15.5176152,0.066395664 C15.5555556,0.066395664 15.5934959,0.066395664 15.5934959,0.0284552846 C15.6314363,0.0284552846 15.6314363,0.0284552846 15.6693767,0.0284552846 C15.8590786,-0.00948509485 16.0487805,-0.00948509485 16.2384824,0.0284552846 C16.2764228,0.0284552846 16.2764228,0.0284552846 16.3143631,0.0284552846 C16.3523035,0.0284552846 16.3902439,0.0284552846 16.3902439,0.066395664 L22.4607046,1.88753388 C21.6639566,2.72222222 21.0569106,3.63279133 20.6775068,4.61924119 L17.4905149,3.67073171 L17.4905149,27.0799458 L28.7588076,23.703252 L28.7588076,16.798103 C28.796748,16.798103 28.796748,16.798103 28.8346883,16.798103 C29.897019,16.798103 30.9214092,16.6084011 31.9078591,16.2289973 L31.9078591,24.8414634 C31.9078591,25.5623306 31.4525745,26.1693767 30.8075881,26.3590786 Z M33.2737127,12.397019 C32.0596206,13.6111111 30.4661247,14.2181572 28.8346883,14.2181572 C27.2411924,14.2181572 25.6097561,13.6111111 24.395664,12.397019 C21.9295393,9.93089431 21.9295393,5.98509485 24.395664,3.51897019 C25.6097561,2.30487805 27.2411924,1.69783198 28.8346883,1.69783198 C30.4281843,1.69783198 32.0596206,2.30487805 33.2737127,3.51897019 C35.7398374,5.98509485 35.7398374,9.96883469 33.2737127,12.397019 Z M30.0867209,7.95799458 L31.6422764,6.40243902 L30.3902439,5.1504065 L28.8346883,6.70596206 L27.2791328,5.1504065 L26.0271003,6.40243902 L27.5826558,7.95799458 L26.0271003,9.51355014 L27.2791328,10.7655827 L28.8346883,9.2100271 L30.3902439,10.7655827 L31.6422764,9.51355014 L30.0867209,7.95799458 Z" id="Shape"></path>
                </g>
            </g>
        </g>
    </g>
</svg>