<?xml version="1.0" encoding="UTF-8"?>
<svg width="58px" height="58px" viewBox="0 0 58 58" version="1.1" xmlns="http://www.w3.org/2000/svg" xmlns:xlink="http://www.w3.org/1999/xlink">
    <!-- Generator: sketchtool 63.1 (101010) - https://sketch.com -->
    <title>20CC3549-5633-49C1-A7F8-410EB8E8854E</title>
    <desc>Created with sketchtool.</desc>
    <g id="[UI]PROVEEDOR-/-NOTIFICACIONES" stroke="none" stroke-width="1" fill="none" fill-rule="evenodd">
        <g id="01C_[Notificaciones]-Nueva-notificacion" transform="translate(-900.000000, -35.000000)" fill="#00BAD2">
            <g id="Group-2-Copy-3" transform="translate(901.000000, 36.000000)">
                <g id="Group-4">
                    <circle id="Oval" stroke="#00BAD2" fill-opacity="0.25" opacity="0.4" cx="28" cy="28" r="28"></circle>
                    <g id="noun_order_371293" transform="translate(10.888889, 12.444444)" fill-rule="nonzero">
                        <path d="M1.35365854,4.3902439 L2.59756098,4.02439024 L5.59756098,3.1097561 L5.59756098,10.5 L9.03658537,9.84146341 L9.03658537,2.08536585 L12.1097561,1.17073171 L15.2195122,0.256097561 C15.2560976,0.256097561 15.2926829,0.256097561 15.2926829,0.219512195 C15.3292683,0.219512195 15.3292683,0.219512195 15.3658537,0.219512195 C15.5487805,0.182926829 15.7317073,0.182926829 15.9146341,0.219512195 C15.9512195,0.219512195 15.9512195,0.219512195 15.9878049,0.219512195 C16.0243902,0.219512195 16.0609756,0.219512195 16.0609756,0.256097561 L21.8414634,1.97560976 C21.1097561,2.74390244 20.5243902,3.62195122 20.0853659,4.6097561 L17.1219512,3.73170732 L17.1219512,26.304878 L27.9878049,23.0487805 L27.9878049,16.4634146 C27.9878049,16.4634146 28.0243902,16.4634146 28.0243902,16.4634146 C29.0853659,16.4634146 30.1097561,16.2439024 31.0243902,15.9146341 L31.0243902,24.1463415 C31.0243902,24.804878 30.5853659,25.3902439 29.9268293,25.6097561 L16.097561,29.7804878 C15.9512195,29.8170732 15.804878,29.8536585 15.6585366,29.8536585 C15.5121951,29.8536585 15.3658537,29.8170732 15.2195122,29.7804878 L1.35365854,25.6097561 C0.695121951,25.4268293 0.256097561,24.8414634 0.256097561,24.1463415 L0.256097561,5.85365854 C0.256097561,5.15853659 0.695121951,4.57317073 1.35365854,4.3902439 Z M28.0243902,1.79268293 C31.3902439,1.79268293 34.1341463,4.53658537 34.1341463,7.90243902 C34.1341463,11.2682927 31.3902439,14.0121951 28.0243902,14.0121951 C24.6585366,14.0121951 21.9146341,11.2682927 21.9146341,7.90243902 C21.9146341,4.5 24.6585366,1.79268293 28.0243902,1.79268293 Z M24.9512195,8.08536585 L26.0853659,9.2195122 L27.2560976,10.3902439 L28.4268293,9.2195122 L31.097561,6.54878049 L29.9268293,5.37804878 L27.2560976,8.04878049 L26.1219512,6.91463415 L24.9512195,8.08536585 Z" id="Shape"></path>
                    </g>
                </g>
            </g>
        </g>
    </g>
</svg>