<?xml version="1.0" encoding="UTF-8"?>
<svg width="58px" height="58px" viewBox="0 0 58 58" version="1.1" xmlns="http://www.w3.org/2000/svg" xmlns:xlink="http://www.w3.org/1999/xlink">
    <!-- Generator: sketchtool 63.1 (101010) - https://sketch.com -->
    <title>13E6F423-E5A7-4E00-AAD0-33087C96116A</title>
    <desc>Created with sketchtool.</desc>
    <g id="[UI]PROVEEDOR-/-NOTIFICACIONES" stroke="none" stroke-width="1" fill="none" fill-rule="evenodd">
        <g id="01_[Notificaciones]-Nueva-notificacion" transform="translate(-900.000000, -35.000000)">
            <g id="Group-3-Copy-5" transform="translate(901.000000, 36.000000)">
                <circle id="Oval" stroke="#07CE56" fill-opacity="0.25" fill="#07CE56" opacity="0.4" cx="28" cy="28" r="28"></circle>
                <g id="noun_order_371293" transform="translate(9.333333, 12.444444)" fill="#09CE56" fill-rule="nonzero">
                    <path d="M1.40379404,4.55284553 L2.69376694,4.17344173 L5.80487805,3.22493225 L5.80487805,10.8888889 L9.37127371,10.2059621 L9.37127371,2.16260163 L12.5582656,1.21409214 L15.7831978,0.265582656 C15.8211382,0.265582656 15.8590786,0.265582656 15.8590786,0.227642276 C15.897019,0.227642276 15.897019,0.227642276 15.9349593,0.227642276 C16.1246612,0.189701897 16.3143631,0.189701897 16.504065,0.227642276 C16.5420054,0.227642276 16.5420054,0.227642276 16.5799458,0.227642276 C16.6178862,0.227642276 16.6558266,0.227642276 16.6558266,0.265582656 L22.6504065,2.04878049 C21.8915989,2.84552846 21.2845528,3.75609756 20.8292683,4.7804878 L17.7560976,3.8699187 L17.7560976,27.2791328 L29.0243902,23.902439 L29.0243902,17.0731707 C29.0243902,17.0731707 29.0623306,17.0731707 29.0623306,17.0731707 C30.1626016,17.0731707 31.2249322,16.8455285 32.1734417,16.504065 L32.1734417,25.0406504 C32.1734417,25.7235772 31.7181572,26.3306233 31.0352304,26.5582656 L16.6937669,30.8834688 C16.5420054,30.9214092 16.3902439,30.9593496 16.2384824,30.9593496 C16.0867209,30.9593496 15.9349593,30.9214092 15.7831978,30.8834688 L1.40379404,26.5582656 C0.720867209,26.3685637 0.265582656,25.7615176 0.265582656,25.0406504 L0.265582656,6.0704607 C0.265582656,5.3495935 0.720867209,4.74254743 1.40379404,4.55284553 Z M29.0623306,1.85907859 C32.5528455,1.85907859 35.398374,4.70460705 35.398374,8.19512195 C35.398374,11.6856369 32.5528455,14.5311653 29.0623306,14.5311653 C25.5718157,14.5311653 22.7262873,11.6856369 22.7262873,8.19512195 C22.7262873,4.66666667 25.5718157,1.85907859 29.0623306,1.85907859 Z M25.8753388,8.38482385 L27.0514905,9.56097561 L28.2655827,10.7750678 L29.4796748,9.56097561 L32.2493225,6.79132791 L31.0352304,5.57723577 L28.2655827,8.34688347 L27.0894309,7.17073171 L25.8753388,8.38482385 Z" id="Shape"></path>
                </g>
            </g>
        </g>
    </g>
</svg>